<svg width="17" height="14" viewBox="0 0 17 14" fill="none" xmlns="http://www.w3.org/2000/svg">
<path d="M16.0469 5.40039H14.0508L10.5234 1.27148C10.2773 0.998047 9.86719 0.970703 9.59375 1.18945C9.32031 1.43555 9.29297 1.8457 9.51172 2.11914L12.3281 5.40039H4.64453L7.46094 2.11914C7.67969 1.8457 7.65234 1.43555 7.37891 1.18945C7.10547 0.970703 6.69531 0.998047 6.44922 1.27148L2.92188 5.40039H0.953125C0.761719 5.40039 0.625 5.56445 0.625 5.72852V6.38477C0.625 6.57617 0.761719 6.71289 0.953125 6.71289H1.44531L2.21094 12.1543C2.29297 12.8105 2.83984 13.2754 3.49609 13.2754H13.4766C14.1328 13.2754 14.6797 12.8105 14.7617 12.1543L15.5273 6.71289H16.0469C16.2109 6.71289 16.375 6.57617 16.375 6.38477V5.72852C16.375 5.56445 16.2109 5.40039 16.0469 5.40039ZM13.4766 11.9629H3.49609L2.78516 6.71289H14.1875L13.4766 11.9629ZM9.15625 8.24414C9.15625 7.88867 8.85547 7.58789 8.5 7.58789C8.11719 7.58789 7.84375 7.88867 7.84375 8.24414V10.4316C7.84375 10.8145 8.11719 11.0879 8.5 11.0879C8.85547 11.0879 9.15625 10.8145 9.15625 10.4316V8.24414ZM12.2188 8.24414C12.2188 7.88867 11.918 7.58789 11.5625 7.58789C11.1797 7.58789 10.9062 7.88867 10.9062 8.24414V10.4316C10.9062 10.8145 11.1797 11.0879 11.5625 11.0879C11.918 11.0879 12.2188 10.8145 12.2188 10.4316V8.24414ZM6.09375 8.24414C6.09375 7.88867 5.79297 7.58789 5.4375 7.58789C5.05469 7.58789 4.78125 7.88867 4.78125 8.24414V10.4316C4.78125 10.8145 5.05469 11.0879 5.4375 11.0879C5.79297 11.0879 6.09375 10.8145 6.09375 10.4316V8.24414Z" fill="#F17228"/>
</svg>
