<svg width="17" height="17" viewBox="0 0 17 17" fill="none" xmlns="http://www.w3.org/2000/svg">
<path d="M15.7188 1.78125L12.5938 1.03125C12.125 0.9375 11.6562 1.15625 11.4688 1.59375L10 5C9.84375 5.40625 9.9375 5.875 10.2812 6.125L11.9688 7.5C10.9062 9.6875 9.15625 11.4375 6.96875 12.5L5.59375 10.8125C5.34375 10.4688 4.875 10.375 4.46875 10.5312L1.0625 12C0.65625 12.1875 0.40625 12.6562 0.5 13.0938L1.25 16.25C1.34375 16.6875 1.71875 17 2.1875 17C10.0625 17 16.5 10.625 16.5 2.71875C16.5 2.25 16.1875 1.875 15.7188 1.78125ZM2.21875 16L1.5 12.9062L4.84375 11.4688L6.71875 13.75C9.9375 12.2188 11.6875 10.4688 13.2188 7.25L10.9375 5.375L12.375 2.03125L15.4688 2.75C15.4688 10.0625 9.53125 16 2.21875 16Z" fill="#F17228"/>
</svg>
