<svg width="35" height="35" viewBox="0 0 35 35" fill="none" xmlns="http://www.w3.org/2000/svg">
<rect width="35" height="35" rx="10" fill="#FEF5ED"/>
<path d="M17.5 8.53125C12.6836 8.53125 8.78125 12.4336 8.78125 17.25C8.78125 22.0664 12.6836 25.9688 17.5 25.9688C22.3164 25.9688 26.2188 22.0664 26.2188 17.25C26.2188 12.4336 22.3164 8.53125 17.5 8.53125ZM22 23.3672C20.7344 24.3164 19.1523 24.8438 17.5 24.8438C15.8125 24.8438 14.2305 24.3164 13 23.3672V22.875C13 21.6445 13.9844 20.625 15.25 20.625C15.6367 20.625 16.1992 21.0469 17.5 21.0469C18.7656 21.0469 19.3281 20.625 19.75 20.625C20.9805 20.625 22 21.6445 22 22.875V23.3672ZM23.0547 22.418C22.8086 20.7656 21.4375 19.5 19.75 19.5C19.0117 19.5 18.6602 19.9219 17.5 19.9219C16.3047 19.9219 15.9531 19.5 15.25 19.5C13.5273 19.5 12.1562 20.7656 11.9102 22.418C10.6445 21.0469 9.90625 19.2539 9.90625 17.25C9.90625 13.0664 13.2812 9.65625 17.5 9.65625C21.6836 9.65625 25.0938 13.0664 25.0938 17.25C25.0938 19.2539 24.3203 21.0469 23.0547 22.418ZM17.5 12.4688C15.7773 12.4688 14.4062 13.875 14.4062 15.5625C14.4062 17.2852 15.7773 18.6562 17.5 18.6562C19.1875 18.6562 20.5938 17.2852 20.5938 15.5625C20.5938 13.875 19.1875 12.4688 17.5 12.4688ZM17.5 17.5312C16.4102 17.5312 15.5312 16.6523 15.5312 15.5625C15.5312 14.5078 16.4102 13.5938 17.5 13.5938C18.5547 13.5938 19.4688 14.5078 19.4688 15.5625C19.4688 16.6523 18.5547 17.5312 17.5 17.5312Z" fill="#F17228"/>
</svg>
