<svg width="14" height="15" viewBox="0 0 14 15" fill="none" xmlns="http://www.w3.org/2000/svg">
<path d="M9.43359 8.46289C8.64062 8.46289 8.28516 8.90039 7 8.90039C5.6875 8.90039 5.33203 8.46289 4.53906 8.46289C2.51562 8.46289 0.875 10.1309 0.875 12.1543V12.8379C0.875 13.5762 1.44922 14.1504 2.1875 14.1504H11.8125C12.5234 14.1504 13.125 13.5762 13.125 12.8379V12.1543C13.125 10.1309 11.457 8.46289 9.43359 8.46289ZM11.8125 12.8379H2.1875V12.1543C2.1875 10.8418 3.22656 9.77539 4.53906 9.77539C4.94922 9.77539 5.57812 10.2129 7 10.2129C8.39453 10.2129 9.02344 9.77539 9.43359 9.77539C10.7461 9.77539 11.8125 10.8418 11.8125 12.1543V12.8379ZM7 8.02539C9.16016 8.02539 10.9375 6.27539 10.9375 4.08789C10.9375 1.92773 9.16016 0.150391 7 0.150391C4.8125 0.150391 3.0625 1.92773 3.0625 4.08789C3.0625 6.27539 4.8125 8.02539 7 8.02539ZM7 1.46289C8.42188 1.46289 9.625 2.66602 9.625 4.08789C9.625 5.53711 8.42188 6.71289 7 6.71289C5.55078 6.71289 4.375 5.53711 4.375 4.08789C4.375 2.66602 5.55078 1.46289 7 1.46289Z" fill="#F17228"/>
</svg>
