<svg width="17" height="19" viewBox="0 0 17 19" fill="none" xmlns="http://www.w3.org/2000/svg">
<path d="M11.6289 10.9375C10.6094 10.9375 10.1523 11.5 8.5 11.5C6.8125 11.5 6.35547 10.9375 5.33594 10.9375C2.73438 10.9375 0.625 13.082 0.625 15.6836V16.5625C0.625 17.5117 1.36328 18.25 2.3125 18.25H14.6875C15.6016 18.25 16.375 17.5117 16.375 16.5625V15.6836C16.375 13.082 14.2305 10.9375 11.6289 10.9375ZM14.6875 16.5625H2.3125V15.6836C2.3125 13.9961 3.64844 12.625 5.33594 12.625C5.86328 12.625 6.67188 13.1875 8.5 13.1875C10.293 13.1875 11.1016 12.625 11.6289 12.625C13.3164 12.625 14.6875 13.9961 14.6875 15.6836V16.5625ZM8.5 10.375C11.2773 10.375 13.5625 8.125 13.5625 5.3125C13.5625 2.53516 11.2773 0.25 8.5 0.25C5.6875 0.25 3.4375 2.53516 3.4375 5.3125C3.4375 8.125 5.6875 10.375 8.5 10.375ZM8.5 1.9375C10.3281 1.9375 11.875 3.48438 11.875 5.3125C11.875 7.17578 10.3281 8.6875 8.5 8.6875C6.63672 8.6875 5.125 7.17578 5.125 5.3125C5.125 3.48438 6.63672 1.9375 8.5 1.9375Z" fill="#F17228"/>
</svg>
