<svg width="35" height="35" viewBox="0 0 35 35" fill="none" xmlns="http://www.w3.org/2000/svg">
<rect width="35" height="35" rx="10" fill="#F2994A" fill-opacity="0.1"/>
<path d="M27.2031 15H24.4961L19.5742 9.58594C19.3633 9.33984 19.0117 9.33984 18.8008 9.55078C18.5547 9.76172 18.5547 10.1133 18.7656 10.3242L22.9844 15H11.9805L16.1992 10.3242C16.4102 10.1133 16.4102 9.76172 16.1641 9.55078C15.9531 9.33984 15.6016 9.33984 15.3906 9.58594L10.4688 15H7.79688C7.55078 15 7.375 15.2109 7.375 15.4219V15.7031C7.375 15.9492 7.55078 16.125 7.79688 16.125H8.35938L9.41406 23.6836C9.51953 24.5273 10.2227 25.125 11.0664 25.125H23.8984C24.7422 25.125 25.4453 24.5273 25.5508 23.6836L26.6055 16.125H27.2031C27.4141 16.125 27.625 15.9492 27.625 15.7031V15.4219C27.625 15.2109 27.4141 15 27.2031 15ZM24.4609 23.543C24.3906 23.8242 24.1797 24 23.8984 24H11.0664C10.7852 24 10.5742 23.8242 10.5039 23.543L9.48438 16.125H25.4805L24.4609 23.543ZM18.0625 18.0938C18.0625 17.8125 17.7812 17.5312 17.5 17.5312C17.1836 17.5312 16.9375 17.8125 16.9375 18.0938V22.0312C16.9375 22.3477 17.1836 22.5938 17.5 22.5938C17.7812 22.5938 18.0625 22.3477 18.0625 22.0312V18.0938ZM22 18.0938C22 17.8125 21.7188 17.5312 21.4375 17.5312C21.1211 17.5312 20.875 17.8125 20.875 18.0938V22.0312C20.875 22.3477 21.1211 22.5938 21.4375 22.5938C21.7188 22.5938 22 22.3477 22 22.0312V18.0938ZM14.125 18.0938C14.125 17.8125 13.8438 17.5312 13.5625 17.5312C13.2461 17.5312 13 17.8125 13 18.0938V22.0312C13 22.3477 13.2461 22.5938 13.5625 22.5938C13.8438 22.5938 14.125 22.3477 14.125 22.0312V18.0938Z" fill="#F17228"/>
</svg>
