<svg width="14" height="13" viewBox="0 0 14 13" fill="none" xmlns="http://www.w3.org/2000/svg">
<path d="M12.5547 1.83594L11.6641 0.945312C11.3828 0.664062 10.9844 0.5 10.6094 0.5C10.2344 0.5 9.83594 0.664062 9.55469 0.945312L7.79688 2.70312L7 3.5L1.28125 9.21875L1 11.8906C0.953125 12.2188 1.21094 12.5 1.53906 12.5C1.5625 12.5 1.58594 12.5 1.60938 12.5L4.28125 12.2188L10 6.5L10.7969 5.70312L12.5547 3.94531C13.1406 3.35938 13.1406 2.42188 12.5547 1.83594ZM3.76562 11.1406L2.19531 11.3047L2.35938 9.73438L7.77344 4.29688L8.5 3.57031L9.92969 5L9.20312 5.72656L3.76562 11.1406ZM11.7578 3.14844L10.7266 4.20312L9.29688 2.77344L10.3516 1.74219C10.4453 1.64844 10.5625 1.625 10.6094 1.625C10.6562 1.625 10.7734 1.64844 10.8672 1.74219L11.7578 2.63281C11.8984 2.77344 11.8984 3.00781 11.7578 3.14844Z" fill="#F17228"/>
</svg>
