<svg width="16" height="16" viewBox="0 0 16 16" fill="none" xmlns="http://www.w3.org/2000/svg">
<path d="M14.8828 14.6152L11.3379 11.0703C11.25 11.0117 11.1621 10.9531 11.0742 10.9531H10.6934C11.6016 9.89844 12.1875 8.49219 12.1875 6.96875C12.1875 3.62891 9.43359 0.875 6.09375 0.875C2.72461 0.875 0 3.62891 0 6.96875C0 10.3379 2.72461 13.0625 6.09375 13.0625C7.61719 13.0625 8.99414 12.5059 10.0781 11.5977V11.9785C10.0781 12.0664 10.1074 12.1543 10.166 12.2422L13.7109 15.7871C13.8574 15.9336 14.0918 15.9336 14.209 15.7871L14.8828 15.1133C15.0293 14.9961 15.0293 14.7617 14.8828 14.6152ZM6.09375 11.6562C3.48633 11.6562 1.40625 9.57617 1.40625 6.96875C1.40625 4.39062 3.48633 2.28125 6.09375 2.28125C8.67188 2.28125 10.7812 4.39062 10.7812 6.96875C10.7812 9.57617 8.67188 11.6562 6.09375 11.6562Z" fill="#FF7800"/>
</svg>
